<svg version="1.0" viewBox="0 -0.126 39.867 10.03" xmlns="http://www.w3.org/2000/svg"><path d="m1.799 5.907v3.094h-1.799v-8.402h1.939c0.77 0 1.341 0.098 1.714 0.293s0.56 0.594 0.56 1.195v2.332c0 0.551-0.152 0.94-0.457 1.169s-0.957 0.335-1.957 0.319zm0.615-1.646v-2.016c0-0.297-0.205-0.445-0.615-0.445v2.906c0.41 0 0.615-0.148 0.615-0.445z" fill="#FFDC00"/><path d="M9.24,9.001H7.342L6.088,4.524v4.477H4.547V0.599h2.098l1.055,3.832V0.599H9.24V9.001z" fill="#FFDC00"/><path d="m13.693 9.001h-0.885l-0.24-0.463c-0.406 0.359-0.836 0.539-1.289 0.539-0.441 0-0.827-0.114-1.157-0.343s-0.495-0.592-0.495-1.092v-5.485c0-1.09 0.695-1.635 2.086-1.635 1.32 0 1.98 0.496 1.98 1.488v1.559h-1.676v-1.699c0-0.137-0.091-0.205-0.272-0.205s-0.272 0.068-0.272 0.205v5.83c0 0.137 0.091 0.205 0.272 0.205s0.272-0.068 0.272-0.205v-1.57h-0.375v-1.289h2.051v4.16z" fill="#FFDC00"/><path d="M26.9,5.626h1.629V7.7c0,0.137,0.086,0.205,0.258,0.205s0.258-0.068,0.258-0.205V0.599h1.846v6.967    c0,1.008-0.697,1.512-2.092,1.512c-0.496,0-0.937-0.121-1.321-0.363S26.9,8.153,26.9,7.759V5.626z" fill="#39CCCC"/><path d="m33.07 5.907v3.094h-1.799v-8.402h1.939c0.77 0 1.341 0.098 1.714 0.293s0.56 0.594 0.56 1.195v2.332c0 0.551-0.152 0.94-0.457 1.169s-0.957 0.335-1.957 0.319zm0.616-1.646v-2.016c0-0.297-0.205-0.445-0.615-0.445v2.906c0.409 0 0.615-0.148 0.615-0.445z" fill="#39CCCC"/><path d="m39.867 9.001h-0.885l-0.24-0.463c-0.406 0.359-0.836 0.539-1.289 0.539-0.441 0-0.827-0.114-1.157-0.343s-0.495-0.593-0.495-1.093v-5.484c0-1.09 0.695-1.635 2.086-1.635 1.32 0 1.98 0.496 1.98 1.488v1.559h-1.676v-1.699c0-0.137-0.091-0.205-0.272-0.205s-0.272 0.068-0.272 0.205v5.83c0 0.137 0.091 0.205 0.272 0.205s0.272-0.068 0.272-0.205v-1.57h-0.375v-1.289h2.051v4.16z" fill="#39CCCC"/><path d="m20.433 0.448c0 0.171 0.133 0.324 0.323 0.324h2.206v8.235h-2.206c-0.171 0-0.323 0.133-0.323 0.323s0.133 0.323 0.323 0.323h2.51c0.171 0 0.323-0.133 0.323-0.323v-8.882c0-0.171-0.133-0.323-0.323-0.323h-2.51c-0.19 0-0.323 0.133-0.323 0.323zm1.16 4.66c0.057-0.057 0.095-0.152 0.095-0.228s-0.038-0.171-0.095-0.229l-2.206-1.901c-0.133-0.133-0.324-0.133-0.457 0s-0.133 0.323 0 0.456l1.579 1.351h-4.812c-0.171 0-0.323 0.133-0.323 0.323s0.133 0.323 0.323 0.323h4.812l-1.579 1.35c-0.133 0.133-0.133 0.323 0 0.457 0.133 0.133 0.323 0.133 0.457 0l2.206-1.902z" fill="#92B0B3" stroke="#92B0B3" stroke-miterlimit="10" stroke-width=".5"/></svg>
